<svg width="28" height="29" viewBox="0 0 28 29" fill="none" xmlns="http://www.w3.org/2000/svg">
<path d="M26.56 0.68V1.44C25.7067 1.62667 24.7867 2 23.8 2.56C22.84 3.12 21.8267 4.02666 20.76 5.28L13.24 14.24L15.56 10.92L25.08 25.76C25.4533 26.3733 25.8533 26.8667 26.28 27.24C26.7067 27.6133 27.2667 27.9333 27.96 28.2V29C27.0267 28.9467 25.9867 28.92 24.84 28.92C23.6933 28.8933 22.6533 28.88 21.72 28.88C21.16 28.88 20.48 28.8933 19.68 28.92C18.88 28.92 17.8667 28.9467 16.64 29V28.2C17.7333 28.1467 18.3867 28 18.6 27.76C18.84 27.4933 18.7467 27.04 18.32 26.4L12.52 17C12.1467 16.3867 11.8133 15.9333 11.52 15.64C11.2267 15.32 10.9333 15.1067 10.64 15C10.3467 14.8667 9.96 14.7867 9.48 14.76V13.92C10.6533 13.8933 11.6933 13.5733 12.6 12.96C13.5333 12.3467 14.5467 11.4133 15.64 10.16L18 7.32C19.0133 6.12 19.6 5.09333 19.76 4.24C19.9467 3.36 19.7733 2.68 19.24 2.2C18.7333 1.72 17.9467 1.46667 16.88 1.44V0.68C17.5467 0.706666 18.1733 0.733332 18.76 0.759999C19.3733 0.759999 20 0.773332 20.64 0.799998C21.3067 0.799998 22.0267 0.799998 22.8 0.799998C23.5733 0.799998 24.2667 0.786665 24.88 0.759999C25.52 0.733332 26.08 0.706666 26.56 0.68ZM12.72 0.68V1.48C11.8667 1.50667 11.2133 1.61333 10.76 1.8C10.3333 1.96 10.0533 2.28 9.92 2.76C9.78667 3.21333 9.72 3.93333 9.72 4.92V24.76C9.72 25.72 9.78667 26.44 9.92 26.92C10.08 27.4 10.3733 27.72 10.8 27.88C11.2267 28.04 11.8667 28.1467 12.72 28.2V29C12 28.9467 11.0933 28.92 10 28.92C8.90667 28.8933 7.8 28.88 6.68 28.88C5.4 28.88 4.18667 28.8933 3.04 28.92C1.92 28.92 1.02667 28.9467 0.36 29V28.2C1.21333 28.1467 1.85333 28.04 2.28 27.88C2.70667 27.72 2.98667 27.4 3.12 26.92C3.28 26.44 3.36 25.72 3.36 24.76V4.92C3.36 3.93333 3.28 3.21333 3.12 2.76C2.98667 2.28 2.69333 1.96 2.24 1.8C1.81333 1.61333 1.18667 1.50667 0.36 1.48V0.68C1.02667 0.706666 1.92 0.733332 3.04 0.759999C4.18667 0.786665 5.4 0.799998 6.68 0.799998C7.8 0.799998 8.90667 0.786665 10 0.759999C11.0933 0.733332 12 0.706666 12.72 0.68Z" fill="#84A98C"/>
</svg>
